<?xml version="1.0" ?><svg id="Layer_1" style="enable-background:new 0 0 52 52;" version="1.1" viewBox="0 0 52 52" xml:space="preserve" xmlns="http://www.w3.org/2000/svg" xmlns:xlink="http://www.w3.org/1999/xlink"><style type="text/css">
	.st0{fill:#231F20;}
</style><g><g><path class="st0" d="M10.428462,10.7848129c8.6188555,0.0002985,17.2377129,0.000597,25.8565674,0.0008955    c2.6992531,0.0000935,3.9988403,0.0842733,5.7473259,2.1799383c0.7320023,0.8773499,2.2349091,3.0776215,2.4798126,4.0566292    c1.2749672,1.0355206,0.992382,2.0305252-0.8477631,2.9850101c-0.4286919,0.0032997-0.8573799,0.0065975-1.2860718,0.0098953    c-4.9783936,0.5339241-5.1352386-6.8846636-5.6204987-9.7336979c-0.7232094,0.1993799-1.4464188,0.3987589-2.1696281,0.5981388    c0.8170395,1.940567,3.5206451,7.8401184,0.8744965,9.246851c-1.7494583,0.9300365-4.4593296-2.5835705-4.9542065-3.757391    c-0.5127792-1.2162895-0.0853233-4.4941034-0.06814-5.7986603c0.0190773-1.4483376-2.2309132-1.4490891-2.25,0    c-0.0877228,6.659956-0.5779133,13.1272964,8.0544739,11.7153358c5.2536163-0.8593082,1.8464394-8.8372002,0.5130043-12.0042744    c-0.5568466-1.3225794-2.4173241-0.8561134-2.1696281,0.5981388c0.8755684,5.1405735,1.4536095,11.0001926,7.7901268,11.3855591    c3.773571,0.229496,6.6209297-1.5441608,4.8338051-5.352562c-0.8315964-1.77215-3.243782-6.40944-4.6487579-7.6124821    c-1.4850807-1.2716331-3.3549538-0.7663279-5.3206978-0.7663965c-8.9380741-0.000309-17.8761482-0.000618-26.8142204-0.0009279    C8.9806919,8.5347624,8.9782982,10.7847624,10.428462,10.7848129L10.428462,10.7848129z"/></g><g><path class="st0" d="M9.3122339,9.7116976c-0.5108271,1.6338034-1.0179787,3.3175192-1.9784622,4.7544699    c-0.77354,1.1572695-2.1212358,1.8661079-2.6805015,3.1592274c-1.211426,2.8010273,0.3845062,4.4909286,2.9742899,4.9981041    c2.8745656,0.5629444,5.1234775-1.1212807,6.7939544-3.3523026c1.8488102-2.4691963,1.2699499-5.9822807,3.2194023-8.3169613    c0.9219818-1.1041737-0.6615276-2.7041225-1.5909901-1.590991c-1.1660709,1.3964968-1.6456289,2.9239082-2.0303946,4.681385    c-0.4775028,2.1810694-1.377038,5.1068754-3.6896381,6.091033c-0.753994,0.3208714-2.0796051,0.4517288-2.8757892,0.1273975    c-1.0734682-0.4372845-0.9753504-0.6318741-0.4883456-1.712368c0.440928-0.9782658,1.2876129-1.5469494,1.9234352-2.4018555    c1.2851448-1.7279625,1.9572868-3.8068314,2.5926676-5.8389997C11.914957,8.9246454,9.7435923,8.3320627,9.3122339,9.7116976    L9.3122339,9.7116976z"/></g><g><path class="st0" d="M12.4905634,19.4122467c1.5574293,2.7460823,5.8448515,3.3217659,8.5949202,2.0847378    c1.4590874-0.6563225,1.8472061-1.968008,2.0812111-3.4477596c0.394846-2.4968328,0.7489529-5.0008726,1.1233597-7.5008545    c0.2121372-1.4164705-1.9555626-2.0274878-2.1696281-0.5981388c-0.3547344,2.3686266-0.700592,4.7387953-1.0642338,7.1060715    c-0.2249584,1.4644604-0.6037483,2.2471733-2.1291847,2.6104317c-1.5264778,0.3635063-3.6646805,0.0715179-4.4936352-1.3901062    C13.7190695,17.0171604,11.7745056,18.1496849,12.4905634,19.4122467L12.4905634,19.4122467z"/></g><g><path class="st0" d="M20.9992809,18.6836281c-0.4701309,2.0060234,1.8805599,3.2395973,3.5949707,3.4259186    c1.9078255,0.2073402,4.3462582-0.0004387,5.2348175-1.9862118c0.5864697-1.3106556-1.3518181-2.4563789-1.9428082-1.1356182    c-0.4359283,0.9742203-1.5433254,0.9422646-2.4840393,0.9120579c-0.5071259-0.0162849-0.9436474-0.04603-1.4162254-0.2723103    c-0.1597614-0.076498-0.7574787-0.6000443-0.8170872-0.3456974C23.4989967,17.8733063,21.3300705,17.272171,20.9992809,18.6836281    L20.9992809,18.6836281z"/></g><g><path class="st0" d="M11.1370211,10.2425032c-0.0001917-1.1464167-0.4708843-4.7560272-0.0009699-5.7881804    c1.0892897-2.3925943,3.5700989-1.7568893,5.6024475-1.7712069c3.473587-0.024471,6.9471741-0.0489597,10.420763-0.0729418    c3.378212-0.0233238,7.0680065-0.4684777,10.4207821-0.0700533c2.682621,0.3187873,3.3259811,0.5700085,3.9795952,3.3869555    c0.3732033,1.608439-0.0272598,3.7088881-0.128231,5.3173227c-0.0907707,1.4459858,2.1595688,1.4405584,2.25,0    c0.156414-2.4916401,1.3270493-8.9345322-1.0332336-10.6764393c-1.1557388-0.8529444-3.7732697-0.2862348-5.0681305-0.2778392    c-3.4735985,0.0225219-6.9471931,0.0460708-10.4207821,0.0700531c-3.1578083,0.0218021-6.3156147,0.0440257-9.4734211,0.066267    c-1.8974104,0.013364-4.7410994-0.5764481-6.4697781,0.2423736c-3.5288572,1.6715105-2.329587,6.3173018-2.3290415,9.5736885    C8.8872643,11.6902599,11.1372643,11.6926785,11.1370211,10.2425032L11.1370211,10.2425032z"/></g><g><path class="st0" d="M40.8865509,21.5766659c-0.0000076,6.5021667-0.0000153,13.0043354-0.0000267,19.5065022    c0,1.4369545,0.2918243,3.1508408-0.0075684,4.5320129c0.0982628,0.8192253-0.207222,1.5214958-0.9164467,2.1068115    c-0.3612823,1.524929-1.2997055,2.0172386-2.8152771,1.4769325c-2.7849617,0.6565666-6.6392097,0.002903-9.5319748,0.0041695    c-3.1773243,0.0013885-6.3546486,0.0027771-9.5319748,0.0041656c-1.0490551,0.0004578-2.8312731,0.3437729-3.812789,0.001667    c-3.708396-1.2925491-3.24547-5.0230141-3.2538795-7.7512589c-0.0199966-6.4876747-0.0399952-12.9753494-0.0599928-19.4630222    c-0.0044622-1.4475613-2.2544708-1.4503441-2.25,0c0.0152369,4.9429893,0.0304728,9.8859787,0.0457096,14.82897    c0.0106373,3.4510078-0.7342043,7.7957344,0.4278679,11.1282272c0.5866432,1.6823273,1.624629,2.7602692,3.2930536,3.311451    c3.9816332,1.3153801,10.0076189,0.1920433,14.1888075,0.1902161c3.9970188-0.0017471,9.5208473,1.0079956,13.3612633-0.0631371    c1.7042618-0.4753342,2.3184853-1.2234802,2.8212471-2.9812775c0.9821091-3.4337387,0.291954-7.7029305,0.2919617-11.2272263    c0.0000076-5.2017365,0.0000153-10.403471,0.0000191-15.6052036    C43.1365547,20.1288967,40.8865547,20.1264992,40.8865509,21.5766659L40.8865509,21.5766659z"/></g><g><path class="st0" d="M10.5114851,41.7851715c10.166667,0,20.3333321,0,30.5,0c1.4477654,0,1.4501648-2.25,0-2.25    c-10.1666679,0-20.333334,0-30.5,0C9.0637169,39.5351715,9.0613194,41.7851715,10.5114851,41.7851715L10.5114851,41.7851715z"/></g><g><path class="st0" d="M24.6781521,46.1185074c0.8333321,0,1.666666,0,2.5,0c1.4477673,0,1.4501648-2.25,0-2.25    c-0.833334,0-1.6666679,0-2.5,0C23.2303829,43.8685074,23.2279854,46.1185074,24.6781521,46.1185074L24.6781521,46.1185074z"/></g><g><path class="st0" d="M25.5948181,6.701839c1.4477673,0,1.4501648-2.25,0-2.25    C24.1470509,4.451839,24.1446533,6.701839,25.5948181,6.701839L25.5948181,6.701839z"/></g></g></svg>