<?xml version="1.0" standalone="no"?>
<!DOCTYPE svg PUBLIC "-//W3C//DTD SVG 20010904//EN"
 "http://www.w3.org/TR/2001/REC-SVG-20010904/DTD/svg10.dtd">
<svg version="1.0" xmlns="http://www.w3.org/2000/svg"
 width="260.000000pt" height="260.000000pt" viewBox="0 0 260.000000 260.000000"
 preserveAspectRatio="xMidYMid meet">
<metadata>
Created by potrace 1.11, written by Peter Selinger 2001-2013
</metadata>
<g transform="translate(0.000000,260.000000) scale(0.100000,-0.100000)"
fill="#000000" stroke="none">
<path d="M0 1300 l0 -1300 1300 0 1300 0 0 1300 0 1300 -1300 0 -1300 0 0
-1300z m2545 0 l0 -1245 -1245 0 -1245 0 -3 1235 c-1 679 0 1241 3 1248 3 10
258 12 1247 10 l1243 -3 0 -1245z"/>
<path d="M132 2477 c-32 -34 -30 -89 4 -116 81 -64 182 42 109 114 -32 33 -83
34 -113 2z"/>
<path d="M2383 2485 c-27 -19 -38 -67 -22 -97 31 -58 92 -66 133 -17 30 35 32
49 11 88 -22 44 -80 56 -122 26z"/>
<path d="M300 2435 c0 -13 115 -15 1010 -13 665 2 1010 6 1010 13 0 7 -345 11
-1010 13 -895 2 -1010 0 -1010 -13z"/>
<path d="M170 1310 c0 -891 2 -1010 15 -1010 13 0 15 119 15 1010 0 891 -2
1010 -15 1010 -13 0 -15 -119 -15 -1010z"/>
<path d="M2420 1310 c0 -891 2 -1010 15 -1010 13 0 15 119 15 1010 0 891 -2
1010 -15 1010 -13 0 -15 -119 -15 -1010z"/>
<path d="M1187 2090 c-160 -40 -247 -176 -247 -385 l0 -75 120 0 120 0 0 74
c0 91 14 132 51 151 67 35 147 6 167 -62 15 -49 16 -204 2 -254 -18 -63 -49
-83 -143 -89 l-82 -5 -3 -111 -3 -111 78 -5 c132 -8 159 -40 169 -205 8 -139
-6 -220 -47 -257 -29 -25 -37 -28 -85 -24 -91 8 -114 47 -114 201 l0 87 -120
0 -120 0 0 -82 c0 -299 118 -438 370 -438 209 0 330 101 361 301 15 97 6 307
-16 377 -18 61 -78 133 -126 153 l-31 12 28 15 c95 48 135 130 142 290 9 229
-50 359 -193 423 -56 26 -210 36 -278 19z"/>
<path d="M153 250 c-27 -11 -43 -40 -43 -78 0 -39 27 -70 67 -78 27 -5 37 -1
63 24 39 39 39 74 1 113 -30 30 -50 34 -88 19z"/>
<path d="M2380 232 c-18 -19 -30 -41 -30 -57 0 -16 12 -38 30 -57 26 -25 36
-29 63 -24 45 9 71 39 71 81 0 42 -26 72 -71 81 -27 5 -37 1 -63 -24z"/>
<path d="M300 185 c0 -13 118 -15 1016 -15 808 0 1015 3 1012 13 -4 9 -218 13
-1016 15 -895 2 -1012 0 -1012 -13z"/>
</g>
</svg>
